<svg width="198" height="93" viewBox="0 0 198 93" fill="none" xmlns="http://www.w3.org/2000/svg">
<path d="M197.731 49.3564C198.204 48.6763 198.037 47.7415 197.356 47.2685C196.676 46.7955 195.742 46.9634 195.269 47.6436L197.731 49.3564ZM26.5 56L26.037 57.4268L26.5 56ZM53.0001 13L54.1939 12.0917L53.0001 13ZM22.5008 90.9536C22.4752 91.7817 23.1257 92.4737 23.9537 92.4993L37.4473 92.9166C38.2753 92.9422 38.9673 92.2917 38.9929 91.4637C39.0185 90.6357 38.368 89.9436 37.54 89.918L25.5457 89.5471L25.9167 77.5528C25.9423 76.7248 25.2918 76.0328 24.4638 76.0072C23.6357 75.9816 22.9437 76.632 22.9181 77.4601L22.5008 90.9536ZM195.269 47.6436C182.949 65.3575 158.746 72.9359 128.397 73.0903C98.1238 73.2443 62.1664 65.9989 26.9631 54.5733L26.037 57.4268C61.4134 68.9085 97.706 76.2465 128.413 76.0903C159.044 75.9344 184.551 68.3092 197.731 49.3564L195.269 47.6436ZM26.9631 54.5733C12.9949 50.0398 6.29817 43.0398 4.14196 35.9322C1.97567 28.7914 4.25155 21.0897 9.18432 14.8708C14.1169 8.65216 21.5614 4.11623 29.3421 3.2818C37.0401 2.45624 45.2057 5.2331 51.8064 13.9083L54.1939 12.0917C46.9733 2.60174 37.7908 -0.641466 29.0222 0.298902C20.3365 1.23039 12.196 6.24639 6.83393 13.0065C1.47198 19.7665 -1.25668 28.4705 1.27115 36.8031C3.80907 45.169 11.5052 52.7103 26.037 57.4268L26.9631 54.5733ZM51.8064 13.9083C60.0901 24.7955 59.2622 37.7696 53.0755 51.1843C46.879 64.6201 35.4109 78.2152 22.9727 89.9071L25.0274 92.0929C37.5893 80.2848 49.3711 66.3799 55.7997 52.4407C62.238 38.4805 63.4101 24.2045 54.1939 12.0917L51.8064 13.9083Z" fill="url(#paint0_linear_18351_7624)"/>
<defs>
<linearGradient id="paint0_linear_18351_7624" x1="188" y1="15" x2="7.00001" y2="104.5" gradientUnits="userSpaceOnUse">
<stop stop-color="white" stop-opacity="0"/>
<stop offset="1" stop-color="white"/>
</linearGradient>
</defs>
</svg>
