<svg width="20" height="20" fill="none" xmlns="http://www.w3.org/2000/svg"><path d="M7.5 3.75h-.625C5.839 3.75 5 4.59 5 5.625V7.5A3.12 3.12 0 0 1 3.75 10 3.12 3.12 0 0 1 5 12.5v1.875c0 1.036.84 1.875 1.875 1.875H7.5v1.25h-.625a3.125 3.125 0 0 1-3.125-3.125V12.5c0-1.036-.84-1.875-1.875-1.875H1.25v-1.25h.625c1.036 0 1.875-.84 1.875-1.875V5.625c0-1.726 1.4-3.125 3.125-3.125H7.5v1.25zM12.5 3.75h.625c1.036 0 1.875.84 1.875 1.875V7.5c0 1.022.49 1.93 1.25 2.5A3.12 3.12 0 0 0 15 12.5v1.875c0 1.036-.84 1.875-1.875 1.875H12.5v1.25h.625c1.726 0 3.125-1.4 3.125-3.125V12.5c0-1.036.84-1.875 1.875-1.875h.625v-1.25h-.625A1.875 1.875 0 0 1 16.25 7.5V5.625c0-1.726-1.4-3.125-3.125-3.125H12.5v1.25z" fill="#fff"/></svg>